<svg width="212" height="92" viewBox="0 0 212 92" fill="none" xmlns="http://www.w3.org/2000/svg">
<g opacity="0.5">
<path d="M58.8441 0H11.4818C9.56815 0 7.65452 0.876192 5.74089 2.62858L2.87045 5.25714C0.956815 7.00952 0 9.2 0 11.8286V80.1714C0 82.8 0.956815 84.9905 2.87045 86.7429L5.74089 89.3714C7.65452 91.1238 9.56815 92 11.4818 92H58.8441C60.7578 92 62.6714 91.1238 64.585 89.3714L67.4555 86.7429C69.3691 84.9905 70.3259 82.8 70.3259 80.1714V11.8286C70.3259 9.2 69.3691 7.00952 67.4555 5.25714L64.585 2.62858C62.6714 0.876192 60.7578 0 58.8441 0ZM60.2794 14.5886V77.4114C60.2794 78.7257 60.1996 79.6019 60.0402 80.04C59.9604 80.3905 59.5618 80.8724 58.8441 81.4857C58.1265 82.0991 57.5684 82.4933 57.1697 82.6686C56.771 82.7562 55.8541 82.8 54.4189 82.8H15.9071C14.4718 82.8 13.5549 82.7562 13.1562 82.6686C12.7575 82.4933 12.1994 82.0991 11.4818 81.4857C10.7642 80.8724 10.3256 80.3905 10.1662 80.04C10.0864 79.6019 10.0466 78.7257 10.0466 77.4114V14.5886C10.0466 13.2743 10.0864 12.4419 10.1662 12.0914C10.3256 11.6533 10.7642 11.1276 11.4818 10.5143C12.1994 9.90095 12.7575 9.55048 13.1562 9.46286C13.5549 9.28762 14.4718 9.2 15.9071 9.2H54.4189C55.8541 9.2 56.771 9.28762 57.1697 9.46286C57.5684 9.55048 58.1265 9.90095 58.8441 10.5143C59.5618 11.1276 59.9604 11.6533 60.0402 12.0914C60.1996 12.4419 60.2794 13.2743 60.2794 14.5886ZM152.166 0H104.804C102.89 0 100.977 0.876192 99.0631 2.62858L96.1926 5.25714C94.279 7.00952 93.3222 9.2 93.3222 11.8286V80.1714C93.3222 82.8 94.279 84.9905 96.1926 86.7429L99.0631 89.3714C100.977 91.1238 102.89 92 104.804 92H152.166C154.08 92 155.994 91.1238 157.907 89.3714L160.778 86.7429C162.691 84.9905 163.648 82.8 163.648 80.1714V46V11.8286C163.648 9.2 162.691 7.00952 160.778 5.25714L157.907 2.62858C155.994 0.876192 154.08 0 152.166 0ZM153.602 14.5886V77.4114C153.602 78.7257 153.522 79.6019 153.362 80.04C153.283 80.3905 152.884 80.8724 152.166 81.4857C151.449 82.0991 150.891 82.4933 150.492 82.6686C150.093 82.7562 149.176 82.8 147.741 82.8H109.229C107.794 82.8 106.877 82.7562 106.478 82.6686C106.08 82.4933 105.522 82.0991 104.804 81.4857C104.086 80.8724 103.648 80.3905 103.488 80.04C103.409 79.6019 103.369 78.7257 103.369 77.4114V14.5886C103.369 13.2743 103.409 12.4419 103.488 12.0914C103.648 11.6533 104.086 11.1276 104.804 10.5143C105.522 9.90095 106.08 9.55048 106.478 9.46286C106.877 9.28762 107.794 9.2 109.229 9.2H147.741C149.176 9.2 150.093 9.28762 150.492 9.46286C150.891 9.55048 151.449 9.90095 152.166 10.5143C152.884 11.1276 153.283 11.6533 153.362 12.0914C153.522 12.4419 153.602 13.2743 153.602 14.5886ZM186.764 26.5486L181.143 20.1086L198.007 0H212V92H202.671V10.7771C202.671 9.02477 202.791 7.88572 203.03 7.36L202.671 6.96572L186.764 26.5486Z" fill="white"/>
<path d="M58.8441 0H11.4818C9.56815 0 7.65452 0.876192 5.74089 2.62858L2.87045 5.25714C0.956815 7.00952 0 9.2 0 11.8286V80.1714C0 82.8 0.956815 84.9905 2.87045 86.7429L5.74089 89.3714C7.65452 91.1238 9.56815 92 11.4818 92H58.8441C60.7578 92 62.6714 91.1238 64.585 89.3714L67.4555 86.7429C69.3691 84.9905 70.3259 82.8 70.3259 80.1714V11.8286C70.3259 9.2 69.3691 7.00952 67.4555 5.25714L64.585 2.62858C62.6714 0.876192 60.7578 0 58.8441 0ZM60.2794 14.5886V77.4114C60.2794 78.7257 60.1996 79.6019 60.0402 80.04C59.9604 80.3905 59.5618 80.8724 58.8441 81.4857C58.1265 82.0991 57.5684 82.4933 57.1697 82.6686C56.771 82.7562 55.8541 82.8 54.4189 82.8H15.9071C14.4718 82.8 13.5549 82.7562 13.1562 82.6686C12.7575 82.4933 12.1994 82.0991 11.4818 81.4857C10.7642 80.8724 10.3256 80.3905 10.1662 80.04C10.0864 79.6019 10.0466 78.7257 10.0466 77.4114V14.5886C10.0466 13.2743 10.0864 12.4419 10.1662 12.0914C10.3256 11.6533 10.7642 11.1276 11.4818 10.5143C12.1994 9.90095 12.7575 9.55048 13.1562 9.46286C13.5549 9.28762 14.4718 9.2 15.9071 9.2H54.4189C55.8541 9.2 56.771 9.28762 57.1697 9.46286C57.5684 9.55048 58.1265 9.90095 58.8441 10.5143C59.5618 11.1276 59.9604 11.6533 60.0402 12.0914C60.1996 12.4419 60.2794 13.2743 60.2794 14.5886ZM152.166 0H104.804C102.89 0 100.977 0.876192 99.0631 2.62858L96.1926 5.25714C94.279 7.00952 93.3222 9.2 93.3222 11.8286V80.1714C93.3222 82.8 94.279 84.9905 96.1926 86.7429L99.0631 89.3714C100.977 91.1238 102.89 92 104.804 92H152.166C154.08 92 155.994 91.1238 157.907 89.3714L160.778 86.7429C162.691 84.9905 163.648 82.8 163.648 80.1714V46V11.8286C163.648 9.2 162.691 7.00952 160.778 5.25714L157.907 2.62858C155.994 0.876192 154.08 0 152.166 0ZM153.602 14.5886V77.4114C153.602 78.7257 153.522 79.6019 153.362 80.04C153.283 80.3905 152.884 80.8724 152.166 81.4857C151.449 82.0991 150.891 82.4933 150.492 82.6686C150.093 82.7562 149.176 82.8 147.741 82.8H109.229C107.794 82.8 106.877 82.7562 106.478 82.6686C106.08 82.4933 105.522 82.0991 104.804 81.4857C104.086 80.8724 103.648 80.3905 103.488 80.04C103.409 79.6019 103.369 78.7257 103.369 77.4114V14.5886C103.369 13.2743 103.409 12.4419 103.488 12.0914C103.648 11.6533 104.086 11.1276 104.804 10.5143C105.522 9.90095 106.08 9.55048 106.478 9.46286C106.877 9.28762 107.794 9.2 109.229 9.2H147.741C149.176 9.2 150.093 9.28762 150.492 9.46286C150.891 9.55048 151.449 9.90095 152.166 10.5143C152.884 11.1276 153.283 11.6533 153.362 12.0914C153.522 12.4419 153.602 13.2743 153.602 14.5886ZM186.764 26.5486L181.143 20.1086L198.007 0H212V92H202.671V10.7771C202.671 9.02477 202.791 7.88572 203.03 7.36L202.671 6.96572L186.764 26.5486Z" stroke="black"/>
</g>
</svg>
