<svg width="212" height="92" viewBox="0 0 212 92" fill="none" xmlns="http://www.w3.org/2000/svg">
<g opacity="0.5">
<path d="M10.2089 0H52.3208C54.0223 0 55.7238 0.876192 57.4253 2.62858L59.9775 5.25715C61.679 7.00952 62.5298 9.2 62.5298 11.8286V80.1714C62.5298 82.8 61.679 84.9905 59.9775 86.7429L57.4253 89.3714C55.7238 91.1238 54.0223 92 52.3208 92H10.2089C8.50745 92 6.80596 91.1238 5.10447 89.3714L2.55224 86.7429C0.850745 84.9905 0 82.8 0 80.1714V11.8286C0 9.2 0.850745 7.00952 2.55224 5.25715L5.10447 2.62858C6.80596 0.876192 8.50745 0 10.2089 0ZM53.5969 77.4114V14.5886C53.5969 13.2743 53.526 12.4419 53.3842 12.0914C53.3133 11.6533 52.9589 11.1276 52.3208 10.5143C51.6828 9.90095 51.1865 9.55048 50.832 9.46286C50.4775 9.28762 49.6622 9.2 48.3861 9.2H14.1436C12.8675 9.2 12.0522 9.28762 11.6977 9.46286C11.3433 9.55048 10.847 9.90095 10.2089 10.5143C9.57088 11.1276 9.18096 11.6533 9.03917 12.0914C8.96827 12.4419 8.93282 13.2743 8.93282 14.5886V77.4114C8.93282 78.7257 8.96827 79.6019 9.03917 80.04C9.18096 80.3905 9.57088 80.8724 10.2089 81.4857C10.847 82.099 11.3433 82.4933 11.6977 82.6686C12.0522 82.7562 12.8675 82.8 14.1436 82.8H48.3861C49.6622 82.8 50.4775 82.7562 50.832 82.6686C51.1865 82.4933 51.6828 82.099 52.3208 81.4857C52.9589 80.8724 53.3133 80.3905 53.3842 80.04C53.526 79.6019 53.5969 78.7257 53.5969 77.4114Z" fill="white"/>
<path d="M93.1857 0H135.298C136.999 0 138.701 0.876192 140.402 2.62858L142.954 5.25715C144.656 7.00952 145.506 9.2 145.506 11.8286V80.1714C145.506 82.8 144.656 84.9905 142.954 86.7429L140.402 89.3714C138.701 91.1238 136.999 92 135.298 92H93.1857C91.4842 92 89.7827 91.1238 88.0812 89.3714L85.5289 86.7429C83.8275 84.9905 82.9767 82.8 82.9767 80.1714V11.8286C82.9767 9.2 83.8275 7.00952 85.5289 5.25715L88.0812 2.62858C89.7827 0.876192 91.4842 0 93.1857 0ZM136.574 77.4114V14.5886C136.574 13.2743 136.503 12.4419 136.361 12.0914C136.29 11.6533 135.936 11.1276 135.298 10.5143C134.659 9.90095 134.163 9.55048 133.809 9.46286C133.454 9.28762 132.639 9.2 131.363 9.2H97.1203C95.8442 9.2 95.0289 9.28762 94.6745 9.46286C94.32 9.55048 93.8237 9.90095 93.1857 10.5143C92.5476 11.1276 92.1577 11.6533 92.0159 12.0914C91.945 12.4419 91.9095 13.2743 91.9095 14.5886V77.4114C91.9095 78.7257 91.945 79.6019 92.0159 80.04C92.1577 80.3905 92.5476 80.8724 93.1857 81.4857C93.8237 82.099 94.32 82.4933 94.6745 82.6686C95.0289 82.7562 95.8442 82.8 97.1203 82.8H131.363C132.639 82.8 133.454 82.7562 133.809 82.6686C134.163 82.4933 134.659 82.099 135.298 81.4857C135.936 80.8724 136.29 80.3905 136.361 80.04C136.503 79.6019 136.574 78.7257 136.574 77.4114Z" fill="white"/>
<path d="M163.72 92V78.0686C163.72 76.4914 163.791 75.4838 163.933 75.0457C164.146 74.52 164.748 73.7314 165.741 72.68L201.047 32.8571C201.968 31.8933 202.535 31.0171 202.748 30.2286C202.961 29.3524 203.067 28.0381 203.067 26.2857V14.5886C203.067 13.2743 202.996 12.4419 202.854 12.0914C202.784 11.6533 202.429 11.1276 201.791 10.5143C201.153 9.90095 200.657 9.55048 200.302 9.46286C199.948 9.28762 199.132 9.2 197.856 9.2H178.927C177.651 9.2 176.836 9.28762 176.481 9.46286C176.127 9.55048 175.631 9.90095 174.993 10.5143C174.355 11.1276 173.965 11.6533 173.823 12.0914C173.752 12.4419 173.716 13.2743 173.716 14.5886V17.0857H164.784V11.8286C164.784 9.2 165.634 7.00952 167.336 5.25715L169.888 2.62858C171.59 0.876192 173.291 0 174.993 0H201.791C203.493 0 205.194 0.876192 206.896 2.62858L209.448 5.25715C211.149 7.00952 212 9.2 212 11.8286V30.36C212 32.1124 211.894 33.4267 211.681 34.3029C211.468 35.0914 210.901 35.9676 209.979 36.9314L174.78 76.2286C173.787 77.3676 173.185 78.2438 172.972 78.8571C172.759 79.4705 172.653 80.6095 172.653 82.2743V82.8H212V92H163.72Z" fill="white"/>
</g>
</svg>
