<svg width="212" height="92" viewBox="0 0 212 92" fill="none" xmlns="http://www.w3.org/2000/svg">
<g opacity="0.5">
<path d="M10.158 0H52.0597C53.7527 0 55.4457 0.876192 57.1387 2.62858L59.6782 5.25715C61.3712 7.00952 62.2177 9.2 62.2177 11.8286V80.1714C62.2177 82.8 61.3712 84.9905 59.6782 86.7429L57.1387 89.3714C55.4457 91.1238 53.7527 92 52.0597 92H10.158C8.46499 92 6.77199 91.1238 5.07899 89.3714L2.5395 86.7429C0.846499 84.9905 0 82.8 0 80.1714V11.8286C0 9.2 0.846499 7.00952 2.5395 5.25715L5.07899 2.62858C6.77199 0.876192 8.46499 0 10.158 0ZM53.3294 77.4114V14.5886C53.3294 13.2743 53.2589 12.4419 53.1178 12.0914C53.0473 11.6533 52.6945 11.1276 52.0597 10.5143C51.4248 9.90095 50.931 9.55048 50.5783 9.46286C50.2256 9.28762 49.4144 9.2 48.1446 9.2H14.073C12.8033 9.2 11.9921 9.28762 11.6394 9.46286C11.2867 9.55048 10.7929 9.90095 10.158 10.5143C9.52311 11.1276 9.13513 11.6533 8.99405 12.0914C8.92351 12.4419 8.88824 13.2743 8.88824 14.5886V77.4114C8.88824 78.7257 8.92351 79.6019 8.99405 80.04C9.13513 80.3905 9.52311 80.8724 10.158 81.4857C10.7929 82.099 11.2867 82.4933 11.6394 82.6686C11.9921 82.7562 12.8033 82.8 14.073 82.8H48.1446C49.4144 82.8 50.2256 82.7562 50.5783 82.6686C50.931 82.4933 51.4248 82.099 52.0597 81.4857C52.6945 80.8724 53.0473 80.3905 53.1178 80.04C53.2589 79.6019 53.3294 78.7257 53.3294 77.4114Z" fill="white"/>
<path d="M92.7206 0H134.622C136.315 0 138.008 0.876192 139.701 2.62858L142.241 5.25715C143.934 7.00952 144.78 9.2 144.78 11.8286V80.1714C144.78 82.8 143.934 84.9905 142.241 86.7429L139.701 89.3714C138.008 91.1238 136.315 92 134.622 92H92.7206C91.0276 92 89.3346 91.1238 87.6416 89.3714L85.1021 86.7429C83.4091 84.9905 82.5626 82.8 82.5626 80.1714V11.8286C82.5626 9.2 83.4091 7.00952 85.1021 5.25715L87.6416 2.62858C89.3346 0.876192 91.0276 0 92.7206 0ZM135.892 77.4114V14.5886C135.892 13.2743 135.821 12.4419 135.68 12.0914C135.61 11.6533 135.257 11.1276 134.622 10.5143C133.987 9.90095 133.494 9.55048 133.141 9.46286C132.788 9.28762 131.977 9.2 130.707 9.2H96.6356C95.3659 9.2 94.5546 9.28762 94.2019 9.46286C93.8492 9.55048 93.3554 9.90095 92.7206 10.5143C92.0857 11.1276 91.6977 11.6533 91.5566 12.0914C91.4861 12.4419 91.4508 13.2743 91.4508 14.5886V77.4114C91.4508 78.7257 91.4861 79.6019 91.5566 80.04C91.6977 80.3905 92.0857 80.8724 92.7206 81.4857C93.3554 82.099 93.8492 82.4933 94.2019 82.6686C94.5546 82.7562 95.3659 82.8 96.6356 82.8H130.707C131.977 82.8 132.788 82.7562 133.141 82.6686C133.494 82.4933 133.987 82.099 134.622 81.4857C135.257 80.8724 135.61 80.3905 135.68 80.04C135.821 79.6019 135.892 78.7257 135.892 77.4114Z" fill="white"/>
<path d="M205.757 45.4743L209.884 49.68C210.942 50.7314 211.541 51.52 211.683 52.0457C211.894 52.5714 212 53.8857 212 55.9886V80.1714C212 81.9238 211.859 83.1505 211.577 83.8514C211.365 84.5524 210.836 85.4724 209.99 86.6114L208.085 88.9771C206.462 90.9924 204.805 92 203.112 92H173.061C171.368 92 169.675 91.1238 167.982 89.3714L165.443 86.7429C163.75 84.9905 162.903 82.8 162.903 80.1714V74.9143H171.791V77.4114C171.791 78.7257 171.827 79.6019 171.897 80.04C172.038 80.3905 172.426 80.8724 173.061 81.4857C173.696 82.099 174.19 82.4933 174.542 82.6686C174.895 82.7562 175.706 82.8 176.976 82.8H197.927C199.197 82.8 200.008 82.7562 200.361 82.6686C200.713 82.4933 201.207 82.099 201.842 81.4857C202.477 80.8724 202.83 80.3905 202.9 80.04C203.041 79.6019 203.112 78.7257 203.112 77.4114V57.5657C203.112 55.6381 202.477 53.9733 201.207 52.5714L199.62 50.8629C198.562 49.7238 197.821 49.0667 197.398 48.8914C196.975 48.7162 196.093 48.6286 194.753 48.6286H177.823V40.2171H193.271C194.612 40.2171 195.493 40.1295 195.917 39.9543C196.34 39.779 197.08 39.1219 198.139 37.9829L199.726 36.4057C200.784 35.3543 201.383 34.6095 201.525 34.1714C201.736 33.6457 201.842 32.5505 201.842 30.8857V14.5886C201.842 13.2743 201.771 12.4419 201.63 12.0914C201.56 11.6533 201.207 11.1276 200.572 10.5143C199.937 9.90095 199.444 9.55048 199.091 9.46286C198.738 9.28762 197.927 9.2 196.657 9.2H179.198C177.858 9.2 177.011 9.28762 176.659 9.46286C176.306 9.55048 175.812 9.90095 175.177 10.5143C174.542 11.1276 174.154 11.6533 174.013 12.0914C173.943 12.4419 173.908 13.2743 173.908 14.5886V17.0857H165.019V11.8286C165.019 9.2 165.866 7.00952 167.559 5.25715L170.098 2.62858C171.791 0.876192 173.484 0 175.177 0H200.572C202.265 0 203.958 0.876192 205.651 2.62858L208.191 5.25715C209.884 7.00952 210.73 9.2 210.73 11.8286V33.3829C210.73 34.8724 210.624 35.8362 210.413 36.2743C210.272 36.7124 209.743 37.3695 208.826 38.2457L205.757 41.4C204.628 42.539 203.641 43.1086 202.794 43.1086V43.7657C203.641 43.7657 204.628 44.3352 205.757 45.4743Z" fill="white"/>
</g>
</svg>
