<svg width="212" height="92" viewBox="0 0 212 92" fill="none" xmlns="http://www.w3.org/2000/svg">
<g opacity="0.5">
<path d="M9.91066 0H50.7921C52.4439 0 54.0957 0.876192 55.7475 2.62858L58.2251 5.25715C59.8769 7.00952 60.7028 9.2 60.7028 11.8286V80.1714C60.7028 82.8 59.8769 84.9905 58.2251 86.7429L55.7475 89.3714C54.0957 91.1238 52.4439 92 50.7921 92H9.91066C8.25888 92 6.60711 91.1238 4.95533 89.3714L2.47766 86.7429C0.825888 84.9905 0 82.8 0 80.1714V11.8286C0 9.2 0.825888 7.00952 2.47766 5.25715L4.95533 2.62858C6.60711 0.876192 8.25888 0 9.91066 0ZM52.031 77.4114V14.5886C52.031 13.2743 51.9621 12.4419 51.8245 12.0914C51.7557 11.6533 51.4115 11.1276 50.7921 10.5143C50.1727 9.90095 49.6909 9.55048 49.3468 9.46286C49.0027 9.28762 48.2112 9.2 46.9724 9.2H13.7304C12.4916 9.2 11.7001 9.28762 11.356 9.46286C11.0118 9.55048 10.5301 9.90095 9.91066 10.5143C9.29124 11.1276 8.91271 11.6533 8.77506 12.0914C8.70624 12.4419 8.67183 13.2743 8.67183 14.5886V77.4114C8.67183 78.7257 8.70624 79.6019 8.77506 80.04C8.91271 80.3905 9.29124 80.8724 9.91066 81.4857C10.5301 82.099 11.0118 82.4933 11.356 82.6686C11.7001 82.7562 12.4916 82.8 13.7304 82.8H46.9724C48.2112 82.8 49.0027 82.7562 49.3468 82.6686C49.6909 82.4933 50.1727 82.099 50.7921 81.4857C51.4115 80.8724 51.7557 80.3905 51.8245 80.04C51.9621 79.6019 52.031 78.7257 52.031 77.4114Z" fill="white"/>
<path d="M90.463 0H131.344C132.996 0 134.648 0.876192 136.3 2.62858L138.777 5.25715C140.429 7.00952 141.255 9.2 141.255 11.8286V80.1714C141.255 82.8 140.429 84.9905 138.777 86.7429L136.3 89.3714C134.648 91.1238 132.996 92 131.344 92H90.463C88.8112 92 87.1594 91.1238 85.5076 89.3714L83.03 86.7429C81.3782 84.9905 80.5523 82.8 80.5523 80.1714V11.8286C80.5523 9.2 81.3782 7.00952 83.03 5.25715L85.5076 2.62858C87.1594 0.876192 88.8112 0 90.463 0ZM132.583 77.4114V14.5886C132.583 13.2743 132.514 12.4419 132.377 12.0914C132.308 11.6533 131.964 11.1276 131.344 10.5143C130.725 9.90095 130.243 9.55048 129.899 9.46286C129.555 9.28762 128.764 9.2 127.525 9.2H94.2827C93.0439 9.2 92.2524 9.28762 91.9083 9.46286C91.5642 9.55048 91.0824 9.90095 90.463 10.5143C89.8436 11.1276 89.465 11.6533 89.3274 12.0914C89.2586 12.4419 89.2241 13.2743 89.2241 14.5886V77.4114C89.2241 78.7257 89.2586 79.6019 89.3274 80.04C89.465 80.3905 89.8436 80.8724 90.463 81.4857C91.0824 82.099 91.5642 82.4933 91.9083 82.6686C92.2524 82.7562 93.0439 82.8 94.2827 82.8H127.525C128.764 82.8 129.555 82.7562 129.899 82.6686C130.243 82.4933 130.725 82.099 131.344 81.4857C131.964 80.8724 132.308 80.3905 132.377 80.04C132.514 79.6019 132.583 78.7257 132.583 77.4114Z" fill="white"/>
<path d="M193.418 35.4857H202.089V61.7714H212V70.9714H202.089V92H193.418V70.9714H156.872V60.1943L192.179 0H201.883L167.505 58.7486C166.817 60.0629 166.232 60.8952 165.75 61.2457V61.7714H193.418V35.4857Z" fill="white"/>
</g>
</svg>
