<svg width="1440" height="278" viewBox="0 0 1440 278" fill="none" xmlns="http://www.w3.org/2000/svg">
<g filter="url(#filter0_f_19_149)">
<path d="M100.26 139.08C100.26 154.04 101.86 162.96 105.06 165.84C108.26 168.72 118.1 170.16 134.58 170.16C149.86 170.16 159.18 169.32 162.54 167.64C166.46 165.64 168.42 160.24 168.42 151.44H180.66C180.66 164.48 177.94 172.72 172.5 176.16C167.06 179.52 154.42 181.2 134.58 181.2C114.34 181.2 101.54 178.8 96.18 174C90.82 169.2 88.14 157.56 88.14 139.08C88.14 120.44 90.78 108.72 96.06 103.92C101.34 99.12 114.18 96.72 134.58 96.72C154.58 96.72 167.26 98.4 172.62 101.76C177.98 105.12 180.66 113.36 180.66 126.48H168.42C168.42 117.68 166.62 112.4 163.02 110.64C159.42 108.8 149.94 107.88 134.58 107.88C118.02 107.88 108.14 109.32 104.94 112.2C101.82 115 100.26 123.96 100.26 139.08ZM257.161 97.92H352.201V180H339.961V108.96H269.401V180H257.161V97.92ZM422.513 181.2C405.473 181.2 393.553 180.12 386.753 177.96C379.953 175.72 375.633 171.52 373.793 165.36C372.513 161.12 371.873 152.36 371.873 139.08C371.873 125.56 372.473 116.8 373.673 112.8C375.513 106.56 379.873 102.32 386.753 100.08C393.633 97.84 405.553 96.72 422.513 96.72C439.553 96.72 451.433 97.84 458.153 100.08C464.953 102.24 469.313 106.44 471.233 112.68C472.513 116.92 473.153 125.72 473.153 139.08C473.153 152.52 472.553 161.24 471.353 165.24C469.513 171.48 465.193 175.72 458.393 177.96C451.593 180.12 439.633 181.2 422.513 181.2ZM422.513 170.16C441.393 170.16 452.513 168.76 455.873 165.96C459.233 163.16 460.913 154.2 460.913 139.08C460.913 123.88 459.233 114.88 455.873 112.08C452.593 109.28 441.473 107.88 422.513 107.88C403.553 107.88 392.393 109.28 389.033 112.08C385.753 114.88 384.113 123.88 384.113 139.08C384.113 154.12 385.793 163.08 389.153 165.96C392.513 168.76 403.633 170.16 422.513 170.16ZM491.648 97.92H503.888V132.72H574.568V97.92H586.808V180H574.568V143.76H503.888V180H491.648V97.92ZM705.879 97.92V180H693.639V108.72L623.799 180H605.319V97.92H617.559V169.92L687.999 97.92H705.879ZM749.788 97.92L792.268 165.36L834.748 97.92H856.588V180H844.468V108.96H842.068L796.108 180H788.428L742.468 108.96H740.188V180H727.948V97.92H749.788ZM937.598 97.92L980.798 180H966.998L957.278 161.76H898.718L889.118 180H875.318L918.518 97.92H937.598ZM951.998 150.84L929.678 107.76H926.558L904.238 150.84H951.998ZM994.265 97.92H1006.5V132.72H1077.18V97.92H1089.42V180H1077.18V143.76H1006.5V180H994.265V97.92ZM1208.5 97.92V180H1196.26V108.72L1126.42 180H1107.94V97.92H1120.18V169.92L1190.62 97.92H1208.5ZM1321.89 97.92L1322.01 180H1309.77V150.36H1252.05C1248.45 150.36 1245.33 151.28 1242.69 153.12C1240.13 154.88 1238.85 157.12 1238.85 159.84V180H1226.61V159.84C1226.61 155.84 1227.77 152.52 1230.09 149.88C1231.85 147.88 1234.21 146.28 1237.17 145.08C1233.81 143.64 1231.37 141.76 1229.85 139.44C1227.69 136.08 1226.61 130.96 1226.61 124.08C1226.61 116.16 1228.49 109.84 1232.25 105.12C1236.01 100.32 1241.37 97.92 1248.33 97.92H1321.89ZM1309.77 139.2V108.96H1253.25C1248.85 108.96 1245.61 109.72 1243.53 111.24C1240.41 113.56 1238.85 117.84 1238.85 124.08C1238.85 130.24 1240.37 134.48 1243.41 136.8C1245.57 138.4 1248.85 139.2 1253.25 139.2H1309.77ZM1341.07 166.08H1354.51V180.6H1341.07V166.08Z" fill="#FF6868"/>
</g>
<mask id="path-2-outside-1_19_149" maskUnits="userSpaceOnUse" x="81.5" y="89" width="1280" height="98" fill="black">
<rect fill="white" x="81.5" y="89" width="1280" height="98"/>
<path d="M100.26 138.08C100.26 153.04 101.86 161.96 105.06 164.84C108.26 167.72 118.1 169.16 134.58 169.16C149.86 169.16 159.18 168.32 162.54 166.64C166.46 164.64 168.42 159.24 168.42 150.44H180.66C180.66 163.48 177.94 171.72 172.5 175.16C167.06 178.52 154.42 180.2 134.58 180.2C114.34 180.2 101.54 177.8 96.18 173C90.82 168.2 88.14 156.56 88.14 138.08C88.14 119.44 90.78 107.72 96.06 102.92C101.34 98.12 114.18 95.72 134.58 95.72C154.58 95.72 167.26 97.4 172.62 100.76C177.98 104.12 180.66 112.36 180.66 125.48H168.42C168.42 116.68 166.62 111.4 163.02 109.64C159.42 107.8 149.94 106.88 134.58 106.88C118.02 106.88 108.14 108.32 104.94 111.2C101.82 114 100.26 122.96 100.26 138.08ZM257.161 96.92H352.201V179H339.961V107.96H269.401V179H257.161V96.92ZM422.513 180.2C405.473 180.2 393.553 179.12 386.753 176.96C379.953 174.72 375.633 170.52 373.793 164.36C372.513 160.12 371.873 151.36 371.873 138.08C371.873 124.56 372.473 115.8 373.673 111.8C375.513 105.56 379.873 101.32 386.753 99.08C393.633 96.84 405.553 95.72 422.513 95.72C439.553 95.72 451.433 96.84 458.153 99.08C464.953 101.24 469.313 105.44 471.233 111.68C472.513 115.92 473.153 124.72 473.153 138.08C473.153 151.52 472.553 160.24 471.353 164.24C469.513 170.48 465.193 174.72 458.393 176.96C451.593 179.12 439.633 180.2 422.513 180.2ZM422.513 169.16C441.393 169.16 452.513 167.76 455.873 164.96C459.233 162.16 460.913 153.2 460.913 138.08C460.913 122.88 459.233 113.88 455.873 111.08C452.593 108.28 441.473 106.88 422.513 106.88C403.553 106.88 392.393 108.28 389.033 111.08C385.753 113.88 384.113 122.88 384.113 138.08C384.113 153.12 385.793 162.08 389.153 164.96C392.513 167.76 403.633 169.16 422.513 169.16ZM491.648 96.92H503.888V131.72H574.568V96.92H586.808V179H574.568V142.76H503.888V179H491.648V96.92ZM705.879 96.92V179H693.639V107.72L623.799 179H605.319V96.92H617.559V168.92L687.999 96.92H705.879ZM749.788 96.92L792.268 164.36L834.748 96.92H856.588V179H844.468V107.96H842.068L796.108 179H788.428L742.468 107.96H740.188V179H727.948V96.92H749.788ZM937.598 96.92L980.798 179H966.998L957.278 160.76H898.718L889.118 179H875.318L918.518 96.92H937.598ZM951.998 149.84L929.678 106.76H926.558L904.238 149.84H951.998ZM994.265 96.92H1006.5V131.72H1077.18V96.92H1089.42V179H1077.18V142.76H1006.5V179H994.265V96.92ZM1208.5 96.92V179H1196.26V107.72L1126.42 179H1107.94V96.92H1120.18V168.92L1190.62 96.92H1208.5ZM1321.89 96.92L1322.01 179H1309.77V149.36H1252.05C1248.45 149.36 1245.33 150.28 1242.69 152.12C1240.13 153.88 1238.85 156.12 1238.85 158.84V179H1226.61V158.84C1226.61 154.84 1227.77 151.52 1230.09 148.88C1231.85 146.88 1234.21 145.28 1237.17 144.08C1233.81 142.64 1231.37 140.76 1229.85 138.44C1227.69 135.08 1226.61 129.96 1226.61 123.08C1226.61 115.16 1228.49 108.84 1232.25 104.12C1236.01 99.32 1241.37 96.92 1248.33 96.92H1321.89ZM1309.77 138.2V107.96H1253.25C1248.85 107.96 1245.61 108.72 1243.53 110.24C1240.41 112.56 1238.85 116.84 1238.85 123.08C1238.85 129.24 1240.37 133.48 1243.41 135.8C1245.57 137.4 1248.85 138.2 1253.25 138.2H1309.77ZM1341.07 165.08H1354.51V179.6H1341.07V165.08Z"/>
</mask>
<path d="M100.26 138.08C100.26 153.04 101.86 161.96 105.06 164.84C108.26 167.72 118.1 169.16 134.58 169.16C149.86 169.16 159.18 168.32 162.54 166.64C166.46 164.64 168.42 159.24 168.42 150.44H180.66C180.66 163.48 177.94 171.72 172.5 175.16C167.06 178.52 154.42 180.2 134.58 180.2C114.34 180.2 101.54 177.8 96.18 173C90.82 168.2 88.14 156.56 88.14 138.08C88.14 119.44 90.78 107.72 96.06 102.92C101.34 98.12 114.18 95.72 134.58 95.72C154.58 95.72 167.26 97.4 172.62 100.76C177.98 104.12 180.66 112.36 180.66 125.48H168.42C168.42 116.68 166.62 111.4 163.02 109.64C159.42 107.8 149.94 106.88 134.58 106.88C118.02 106.88 108.14 108.32 104.94 111.2C101.82 114 100.26 122.96 100.26 138.08ZM257.161 96.92H352.201V179H339.961V107.96H269.401V179H257.161V96.92ZM422.513 180.2C405.473 180.2 393.553 179.12 386.753 176.96C379.953 174.72 375.633 170.52 373.793 164.36C372.513 160.12 371.873 151.36 371.873 138.08C371.873 124.56 372.473 115.8 373.673 111.8C375.513 105.56 379.873 101.32 386.753 99.08C393.633 96.84 405.553 95.72 422.513 95.72C439.553 95.72 451.433 96.84 458.153 99.08C464.953 101.24 469.313 105.44 471.233 111.68C472.513 115.92 473.153 124.72 473.153 138.08C473.153 151.52 472.553 160.24 471.353 164.24C469.513 170.48 465.193 174.72 458.393 176.96C451.593 179.12 439.633 180.2 422.513 180.2ZM422.513 169.16C441.393 169.16 452.513 167.76 455.873 164.96C459.233 162.16 460.913 153.2 460.913 138.08C460.913 122.88 459.233 113.88 455.873 111.08C452.593 108.28 441.473 106.88 422.513 106.88C403.553 106.88 392.393 108.28 389.033 111.08C385.753 113.88 384.113 122.88 384.113 138.08C384.113 153.12 385.793 162.08 389.153 164.96C392.513 167.76 403.633 169.16 422.513 169.16ZM491.648 96.92H503.888V131.72H574.568V96.92H586.808V179H574.568V142.76H503.888V179H491.648V96.92ZM705.879 96.92V179H693.639V107.72L623.799 179H605.319V96.92H617.559V168.92L687.999 96.92H705.879ZM749.788 96.92L792.268 164.36L834.748 96.92H856.588V179H844.468V107.96H842.068L796.108 179H788.428L742.468 107.96H740.188V179H727.948V96.92H749.788ZM937.598 96.92L980.798 179H966.998L957.278 160.76H898.718L889.118 179H875.318L918.518 96.92H937.598ZM951.998 149.84L929.678 106.76H926.558L904.238 149.84H951.998ZM994.265 96.92H1006.5V131.72H1077.18V96.92H1089.42V179H1077.18V142.76H1006.5V179H994.265V96.92ZM1208.5 96.92V179H1196.26V107.72L1126.42 179H1107.94V96.92H1120.18V168.92L1190.62 96.92H1208.5ZM1321.89 96.92L1322.01 179H1309.77V149.36H1252.05C1248.45 149.36 1245.33 150.28 1242.69 152.12C1240.13 153.88 1238.85 156.12 1238.85 158.84V179H1226.61V158.84C1226.61 154.84 1227.77 151.52 1230.09 148.88C1231.85 146.88 1234.21 145.28 1237.17 144.08C1233.81 142.64 1231.37 140.76 1229.85 138.44C1227.69 135.08 1226.61 129.96 1226.61 123.08C1226.61 115.16 1228.49 108.84 1232.25 104.12C1236.01 99.32 1241.37 96.92 1248.33 96.92H1321.89ZM1309.77 138.2V107.96H1253.25C1248.85 107.96 1245.61 108.72 1243.53 110.24C1240.41 112.56 1238.85 116.84 1238.85 123.08C1238.85 129.24 1240.37 133.48 1243.41 135.8C1245.57 137.4 1248.85 138.2 1253.25 138.2H1309.77ZM1341.07 165.08H1354.51V179.6H1341.07V165.08Z" fill="#FF0000"/>
<path d="M162.54 166.64L165.223 172.007L165.245 171.996L165.267 171.985L162.54 166.64ZM168.42 150.44V144.44H162.42V150.44H168.42ZM180.66 150.44H186.66V144.44H180.66V150.44ZM172.5 175.16L175.653 180.265L175.68 180.248L175.707 180.231L172.5 175.16ZM96.18 173L92.1773 177.47L96.18 173ZM96.06 102.92L100.096 107.36L96.06 102.92ZM172.62 100.76L175.807 95.6763V95.6763L172.62 100.76ZM180.66 125.48V131.48H186.66V125.48H180.66ZM168.42 125.48H162.42V131.48H168.42V125.48ZM163.02 109.64L160.289 114.983L160.337 115.007L160.385 115.03L163.02 109.64ZM104.94 111.2L108.947 115.665L108.954 115.66L104.94 111.2ZM94.26 138.08C94.26 145.718 94.6644 152.088 95.5543 157.049C96.3768 161.635 97.829 166.404 101.046 169.3L109.074 160.38C109.091 160.396 108.143 159.265 107.366 154.931C106.656 150.972 106.26 145.402 106.26 138.08H94.26ZM101.046 169.3C102.72 170.807 104.816 171.762 106.818 172.426C108.891 173.112 111.304 173.626 113.971 174.017C119.304 174.797 126.211 175.16 134.58 175.16V163.16C126.469 163.16 120.216 162.803 115.709 162.143C113.456 161.814 111.779 161.428 110.592 161.034C109.334 160.618 109 160.313 109.074 160.38L101.046 169.3ZM134.58 175.16C142.303 175.16 148.654 174.949 153.569 174.506C158.183 174.09 162.412 173.412 165.223 172.007L159.857 161.273C159.309 161.548 157.197 162.13 152.491 162.554C148.086 162.951 142.137 163.16 134.58 163.16V175.16ZM165.267 171.985C168.953 170.104 171.255 166.816 172.59 163.137C173.9 159.529 174.42 155.207 174.42 150.44H162.42C162.42 154.473 161.96 157.251 161.31 159.043C160.685 160.764 160.047 161.176 159.813 161.295L165.267 171.985ZM168.42 156.44H180.66V144.44H168.42V156.44ZM174.66 150.44C174.66 156.609 174.008 161.229 172.922 164.519C171.846 167.779 170.486 169.335 169.293 170.089L175.707 180.231C179.954 177.545 182.674 173.261 184.318 168.281C185.952 163.33 186.66 157.311 186.66 150.44H174.66ZM169.347 170.055C167.757 171.037 164.301 172.175 158.149 172.992C152.193 173.784 144.364 174.2 134.58 174.2V186.2C144.636 186.2 153.047 185.776 159.731 184.888C166.219 184.025 171.803 182.643 175.653 180.265L169.347 170.055ZM134.58 174.2C124.651 174.2 116.799 173.608 110.906 172.503C104.834 171.364 101.62 169.818 100.183 168.53L92.1773 177.47C96.0997 180.982 101.966 183.036 108.694 184.297C115.601 185.592 124.269 186.2 134.58 186.2V174.2ZM100.183 168.53C98.8547 167.341 97.2253 164.658 95.997 159.324C94.798 154.116 94.14 147.084 94.14 138.08H82.14C82.14 147.556 82.822 155.584 84.303 162.016C85.7547 168.322 88.1453 173.859 92.1773 177.47L100.183 168.53ZM94.14 138.08C94.14 128.989 94.7887 121.887 95.9733 116.628C97.189 111.232 98.8022 108.536 100.096 107.36L92.024 98.4804C88.0378 102.104 85.691 107.668 84.2667 113.992C82.8113 120.453 82.14 128.531 82.14 138.08H94.14ZM100.096 107.36C101.477 106.105 104.649 104.559 110.752 103.418C116.666 102.313 124.569 101.72 134.58 101.72V89.72C124.191 89.72 115.474 90.3275 108.548 91.6221C101.811 92.8813 95.9235 94.9354 92.024 98.4804L100.096 107.36ZM134.58 101.72C144.445 101.72 152.326 102.136 158.302 102.928C164.485 103.747 167.904 104.885 169.433 105.844L175.807 95.6763C171.976 93.2746 166.375 91.8927 159.878 91.032C153.174 90.1438 144.715 89.72 134.58 89.72V101.72ZM169.433 105.844C170.545 106.541 171.879 108.041 172.944 111.316C174.016 114.612 174.66 119.261 174.66 125.48H186.66C186.66 118.579 185.964 112.548 184.356 107.604C182.741 102.639 180.055 98.3393 175.807 95.6763L169.433 105.844ZM180.66 119.48H168.42V131.48H180.66V119.48ZM174.42 125.48C174.42 120.756 173.948 116.5 172.749 112.984C171.54 109.436 169.374 106.068 165.655 104.25L160.385 115.03C160.387 115.031 160.401 115.038 160.432 115.064C160.464 115.091 160.53 115.152 160.622 115.272C160.812 115.52 161.1 116.002 161.391 116.856C161.992 118.62 162.42 121.404 162.42 125.48H174.42ZM165.751 104.297C162.836 102.808 158.534 102.058 153.79 101.598C148.777 101.112 142.352 100.88 134.58 100.88V112.88C142.168 112.88 148.163 113.108 152.63 113.542C157.366 114.002 159.604 114.632 160.289 114.983L165.751 104.297ZM134.58 100.88C126.172 100.88 119.236 101.243 113.885 102.023C111.209 102.413 108.788 102.927 106.711 103.613C104.706 104.275 102.604 105.231 100.926 106.74L108.954 115.66C108.876 115.729 109.209 115.425 110.474 115.007C111.667 114.613 113.351 114.227 115.615 113.897C120.144 113.237 126.428 112.88 134.58 112.88V100.88ZM100.933 106.735C99.2025 108.287 98.0857 110.307 97.3177 112.236C96.5297 114.217 95.9519 116.504 95.5189 118.991C94.6538 123.96 94.26 130.369 94.26 138.08H106.26C106.26 130.671 106.646 125.04 107.341 121.049C107.688 119.056 108.085 117.633 108.467 116.674C108.869 115.663 109.118 115.513 108.947 115.665L100.933 106.735ZM257.161 96.92V90.92H251.161V96.92H257.161ZM352.201 96.92H358.201V90.92H352.201V96.92ZM352.201 179V185H358.201V179H352.201ZM339.961 179H333.961V185H339.961V179ZM339.961 107.96H345.961V101.96H339.961V107.96ZM269.401 107.96V101.96H263.401V107.96H269.401ZM269.401 179V185H275.401V179H269.401ZM257.161 179H251.161V185H257.161V179ZM257.161 102.92H352.201V90.92H257.161V102.92ZM346.201 96.92V179H358.201V96.92H346.201ZM352.201 173H339.961V185H352.201V173ZM345.961 179V107.96H333.961V179H345.961ZM339.961 101.96H269.401V113.96H339.961V101.96ZM263.401 107.96V179H275.401V107.96H263.401ZM269.401 173H257.161V185H269.401V173ZM263.161 179V96.92H251.161V179H263.161ZM386.753 176.96L384.876 182.659L384.907 182.669L384.937 182.678L386.753 176.96ZM373.793 164.36L379.542 162.643L379.54 162.634L379.537 162.626L373.793 164.36ZM373.673 111.8L379.42 113.524L379.424 113.511L379.428 113.497L373.673 111.8ZM386.753 99.08L384.896 93.3748L386.753 99.08ZM458.153 99.08L456.256 104.772L456.296 104.786L456.337 104.798L458.153 99.08ZM471.233 111.68L476.977 109.946L476.973 109.931L476.968 109.915L471.233 111.68ZM471.353 164.24L465.606 162.516L465.602 162.529L465.598 162.543L471.353 164.24ZM458.393 176.96L460.21 182.678L460.24 182.669L460.271 182.659L458.393 176.96ZM455.873 111.08L451.978 115.643L452.005 115.667L452.032 115.689L455.873 111.08ZM389.033 111.08L385.192 106.471L385.165 106.493L385.138 106.517L389.033 111.08ZM389.153 164.96L385.249 169.516L385.28 169.543L385.312 169.569L389.153 164.96ZM422.513 174.2C405.472 174.2 394.393 173.091 388.57 171.242L384.937 182.678C392.713 185.149 405.475 186.2 422.513 186.2V174.2ZM388.631 171.261C383.448 169.554 380.75 166.686 379.542 162.643L368.044 166.077C370.517 174.354 376.459 179.886 384.876 182.659L388.631 171.261ZM379.537 162.626C378.556 159.376 377.873 151.516 377.873 138.08H365.873C365.873 151.204 366.471 160.864 368.049 166.094L379.537 162.626ZM377.873 138.08C377.873 131.392 378.022 125.972 378.309 121.78C378.605 117.469 379.024 114.844 379.42 113.524L367.926 110.076C367.122 112.756 366.642 116.511 366.337 120.96C366.025 125.528 365.873 131.248 365.873 138.08H377.873ZM379.428 113.497C380.64 109.39 383.365 106.493 388.611 104.785L384.896 93.3748C376.382 96.1466 370.387 101.73 367.918 110.103L379.428 113.497ZM388.611 104.785C394.499 102.868 405.565 101.72 422.513 101.72V89.72C405.542 89.72 392.768 90.8119 384.896 93.3748L388.611 104.785ZM422.513 101.72C439.562 101.72 450.556 102.872 456.256 104.772L460.051 93.3879C452.311 90.808 439.545 89.72 422.513 89.72V101.72ZM456.337 104.798C461.466 106.428 464.218 109.281 465.499 113.445L476.968 109.915C474.409 101.599 468.441 96.0524 459.97 93.3616L456.337 104.798ZM465.489 113.414C466.47 116.663 467.153 124.56 467.153 138.08H479.153C479.153 124.88 478.557 115.177 476.977 109.946L465.489 113.414ZM467.153 138.08C467.153 144.727 467.005 150.117 466.718 154.288C466.423 158.576 466.003 161.194 465.606 162.516L477.1 165.964C477.904 163.286 478.384 159.544 478.689 155.112C479.002 150.563 479.153 144.873 479.153 138.08H467.153ZM465.598 162.543C464.378 166.681 461.665 169.565 456.516 171.261L460.271 182.659C468.722 179.875 474.649 174.279 477.108 165.937L465.598 162.543ZM456.577 171.242C450.755 173.091 439.639 174.2 422.513 174.2V186.2C439.628 186.2 452.432 185.149 460.21 182.678L456.577 171.242ZM422.513 175.16C432.06 175.16 439.843 174.808 445.763 174.063C448.72 173.691 451.351 173.204 453.57 172.56C455.682 171.947 457.936 171.051 459.715 169.569L452.032 160.351C452.13 160.269 451.735 160.598 450.227 161.035C448.826 161.441 446.867 161.829 444.264 162.157C439.064 162.812 431.847 163.16 422.513 163.16V175.16ZM459.715 169.569C463.143 166.713 464.685 161.865 465.551 157.246C466.489 152.242 466.913 145.803 466.913 138.08H454.913C454.913 145.477 454.498 151.078 453.756 155.034C452.942 159.375 451.964 160.407 452.032 160.351L459.715 169.569ZM466.913 138.08C466.913 130.318 466.489 123.851 465.552 118.829C464.687 114.197 463.148 109.332 459.715 106.471L452.032 115.689C451.959 115.628 452.94 116.663 453.755 121.031C454.498 125.009 454.913 130.642 454.913 138.08H466.913ZM459.769 106.517C457.992 105 455.723 104.095 453.623 103.482C451.41 102.837 448.78 102.349 445.823 101.977C439.903 101.232 432.098 100.88 422.513 100.88V112.88C431.889 112.88 439.124 113.228 444.324 113.883C446.927 114.211 448.877 114.598 450.263 115.002C451.764 115.44 452.115 115.76 451.978 115.643L459.769 106.517ZM422.513 100.88C412.928 100.88 405.115 101.232 399.177 101.977C396.21 102.349 393.572 102.836 391.349 103.479C389.234 104.09 386.973 104.987 385.192 106.471L392.875 115.689C392.774 115.773 393.168 115.445 394.683 115.006C396.09 114.599 398.057 114.211 400.67 113.883C405.892 113.228 413.139 112.88 422.513 112.88V100.88ZM385.138 106.517C383.339 108.052 382.16 110.075 381.343 112.033C380.509 114.035 379.898 116.346 379.441 118.854C378.528 123.865 378.113 130.322 378.113 138.08H390.113C390.113 130.638 390.519 124.995 391.246 121.006C391.609 119.014 392.023 117.6 392.419 116.652C392.832 115.66 393.088 115.508 392.929 115.643L385.138 106.517ZM378.113 138.08C378.113 145.765 378.538 152.183 379.476 157.186C380.346 161.826 381.886 166.633 385.249 169.516L393.058 160.404C393.061 160.407 392.081 159.294 391.271 154.974C390.529 151.017 390.113 145.435 390.113 138.08H378.113ZM385.312 169.569C387.09 171.051 389.345 171.947 391.457 172.56C393.676 173.204 396.307 173.691 399.264 174.063C405.184 174.808 412.967 175.16 422.513 175.16V163.16C413.18 163.16 405.963 162.812 400.763 162.157C398.16 161.829 396.201 161.441 394.8 161.035C393.292 160.598 392.896 160.269 392.995 160.351L385.312 169.569ZM491.647 96.92V90.92H485.647V96.92H491.647ZM503.888 96.92H509.888V90.92H503.888V96.92ZM503.888 131.72H497.888V137.72H503.888V131.72ZM574.568 131.72V137.72H580.568V131.72H574.568ZM574.568 96.92V90.92H568.568V96.92H574.568ZM586.807 96.92H592.807V90.92H586.807V96.92ZM586.807 179V185H592.807V179H586.807ZM574.568 179H568.568V185H574.568V179ZM574.568 142.76H580.568V136.76H574.568V142.76ZM503.888 142.76V136.76H497.888V142.76H503.888ZM503.888 179V185H509.888V179H503.888ZM491.647 179H485.647V185H491.647V179ZM491.647 102.92H503.888V90.92H491.647V102.92ZM497.888 96.92V131.72H509.888V96.92H497.888ZM503.888 137.72H574.568V125.72H503.888V137.72ZM580.568 131.72V96.92H568.568V131.72H580.568ZM574.568 102.92H586.807V90.92H574.568V102.92ZM580.807 96.92V179H592.807V96.92H580.807ZM586.807 173H574.568V185H586.807V173ZM580.568 179V142.76H568.568V179H580.568ZM574.568 136.76H503.888V148.76H574.568V136.76ZM497.888 142.76V179H509.888V142.76H497.888ZM503.888 173H491.647V185H503.888V173ZM497.647 179V96.92H485.647V179H497.647ZM705.879 96.92H711.879V90.92H705.879V96.92ZM705.879 179V185H711.879V179H705.879ZM693.639 179H687.639V185H693.639V179ZM693.639 107.72H699.639V93.0231L689.354 103.521L693.639 107.72ZM623.799 179V185H626.321L628.085 183.199L623.799 179ZM605.319 179H599.319V185H605.319V179ZM605.319 96.92V90.92H599.319V96.92H605.319ZM617.559 96.92H623.559V90.92H617.559V96.92ZM617.559 168.92H611.559V183.633L621.848 173.116L617.559 168.92ZM687.999 96.92V90.92H685.476L683.711 92.7241L687.999 96.92ZM699.879 96.92V179H711.879V96.92H699.879ZM705.879 173H693.639V185H705.879V173ZM699.639 179V107.72H687.639V179H699.639ZM689.354 103.521L619.514 174.801L628.085 183.199L697.925 111.919L689.354 103.521ZM623.799 173H605.319V185H623.799V173ZM611.319 179V96.92H599.319V179H611.319ZM605.319 102.92H617.559V90.92H605.319V102.92ZM611.559 96.92V168.92H623.559V96.92H611.559ZM621.848 173.116L692.288 101.116L683.711 92.7241L613.271 164.724L621.848 173.116ZM687.999 102.92H705.879V90.92H687.999V102.92ZM749.788 96.92L754.865 93.7222L753.1 90.92H749.788V96.92ZM792.268 164.36L787.191 167.558L792.268 175.618L797.345 167.558L792.268 164.36ZM834.748 96.92V90.92H831.436L829.671 93.7222L834.748 96.92ZM856.588 96.92H862.588V90.92H856.588V96.92ZM856.588 179V185H862.588V179H856.588ZM844.468 179H838.468V185H844.468V179ZM844.468 107.96H850.468V101.96H844.468V107.96ZM842.068 107.96V101.96H838.804L837.03 104.701L842.068 107.96ZM796.108 179V185H799.373L801.146 182.259L796.108 179ZM788.428 179L783.391 182.259L785.164 185H788.428V179ZM742.468 107.96L747.506 104.701L745.733 101.96H742.468V107.96ZM740.188 107.96V101.96H734.188V107.96H740.188ZM740.188 179V185H746.188V179H740.188ZM727.948 179H721.948V185H727.948V179ZM727.948 96.92V90.92H721.948V96.92H727.948ZM744.711 100.118L787.191 167.558L797.345 161.162L754.865 93.7222L744.711 100.118ZM797.345 167.558L839.825 100.118L829.671 93.7222L787.191 161.162L797.345 167.558ZM834.748 102.92H856.588V90.92H834.748V102.92ZM850.588 96.92V179H862.588V96.92H850.588ZM856.588 173H844.468V185H856.588V173ZM850.468 179V107.96H838.468V179H850.468ZM844.468 101.96H842.068V113.96H844.468V101.96ZM837.03 104.701L791.07 175.741L801.146 182.259L847.106 111.219L837.03 104.701ZM796.108 173H788.428V185H796.108V173ZM793.466 175.741L747.506 104.701L737.43 111.219L783.391 182.259L793.466 175.741ZM742.468 101.96H740.188V113.96H742.468V101.96ZM734.188 107.96V179H746.188V107.96H734.188ZM740.188 173H727.948V185H740.188V173ZM733.948 179V96.92H721.948V179H733.948ZM727.948 102.92H749.788V90.92H727.948V102.92ZM937.598 96.92L942.908 94.1255L941.221 90.92H937.598V96.92ZM980.798 179V185H990.737L986.108 176.206L980.798 179ZM966.998 179L961.703 181.822L963.397 185H966.998V179ZM957.278 160.76L962.574 157.938L960.88 154.76H957.278V160.76ZM898.718 160.76V154.76H895.096L893.409 157.966L898.718 160.76ZM889.118 179V185H892.741L894.428 181.794L889.118 179ZM875.318 179L870.009 176.206L865.38 185H875.318V179ZM918.518 96.92V90.92H914.896L913.209 94.1255L918.518 96.92ZM951.998 149.84V155.84H961.865L957.326 147.08L951.998 149.84ZM929.678 106.76L935.006 104L933.327 100.76H929.678V106.76ZM926.558 106.76V100.76H922.91L921.231 104L926.558 106.76ZM904.238 149.84L898.911 147.08L894.372 155.84H904.238V149.84ZM932.289 99.7145L975.489 181.794L986.108 176.206L942.908 94.1255L932.289 99.7145ZM980.798 173H966.998V185H980.798V173ZM972.294 176.178L962.574 157.938L951.983 163.582L961.703 181.822L972.294 176.178ZM957.278 154.76H898.718V166.76H957.278V154.76ZM893.409 157.966L883.809 176.206L894.428 181.794L904.028 163.554L893.409 157.966ZM889.118 173H875.318V185H889.118V173ZM880.628 181.794L923.828 99.7145L913.209 94.1255L870.009 176.206L880.628 181.794ZM918.518 102.92H937.598V90.92H918.518V102.92ZM957.326 147.08L935.006 104L924.351 109.52L946.671 152.6L957.326 147.08ZM929.678 100.76H926.558V112.76H929.678V100.76ZM921.231 104L898.911 147.08L909.566 152.6L931.886 109.52L921.231 104ZM904.238 155.84H951.998V143.84H904.238V155.84ZM994.265 96.92V90.92H988.265V96.92H994.265ZM1006.5 96.92H1012.5V90.92H1006.5V96.92ZM1006.5 131.72H1000.5V137.72H1006.5V131.72ZM1077.18 131.72V137.72H1083.18V131.72H1077.18ZM1077.18 96.92V90.92H1071.18V96.92H1077.18ZM1089.42 96.92H1095.42V90.92H1089.42V96.92ZM1089.42 179V185H1095.42V179H1089.42ZM1077.18 179H1071.18V185H1077.18V179ZM1077.18 142.76H1083.18V136.76H1077.18V142.76ZM1006.5 142.76V136.76H1000.5V142.76H1006.5ZM1006.5 179V185H1012.5V179H1006.5ZM994.265 179H988.265V185H994.265V179ZM994.265 102.92H1006.5V90.92H994.265V102.92ZM1000.5 96.92V131.72H1012.5V96.92H1000.5ZM1006.5 137.72H1077.18V125.72H1006.5V137.72ZM1083.18 131.72V96.92H1071.18V131.72H1083.18ZM1077.18 102.92H1089.42V90.92H1077.18V102.92ZM1083.42 96.92V179H1095.42V96.92H1083.42ZM1089.42 173H1077.18V185H1089.42V173ZM1083.18 179V142.76H1071.18V179H1083.18ZM1077.18 136.76H1006.5V148.76H1077.18V136.76ZM1000.5 142.76V179H1012.5V142.76H1000.5ZM1006.5 173H994.265V185H1006.5V173ZM1000.26 179V96.92H988.265V179H1000.26ZM1208.5 96.92H1214.5V90.92H1208.5V96.92ZM1208.5 179V185H1214.5V179H1208.5ZM1196.26 179H1190.26V185H1196.26V179ZM1196.26 107.72H1202.26V93.0231L1191.97 103.521L1196.26 107.72ZM1126.42 179V185H1128.94L1130.7 183.199L1126.42 179ZM1107.94 179H1101.94V185H1107.94V179ZM1107.94 96.92V90.92H1101.94V96.92H1107.94ZM1120.18 96.92H1126.18V90.92H1120.18V96.92ZM1120.18 168.92H1114.18V183.633L1124.47 173.116L1120.18 168.92ZM1190.62 96.92V90.92H1188.09L1186.33 92.7241L1190.62 96.92ZM1202.5 96.92V179H1214.5V96.92H1202.5ZM1208.5 173H1196.26V185H1208.5V173ZM1202.26 179V107.72H1190.26V179H1202.26ZM1191.97 103.521L1122.13 174.801L1130.7 183.199L1200.54 111.919L1191.97 103.521ZM1126.42 173H1107.94V185H1126.42V173ZM1113.94 179V96.92H1101.94V179H1113.94ZM1107.94 102.92H1120.18V90.92H1107.94V102.92ZM1114.18 96.92V168.92H1126.18V96.92H1114.18ZM1124.47 173.116L1194.91 101.116L1186.33 92.7241L1115.89 164.724L1124.47 173.116ZM1190.62 102.92H1208.5V90.92H1190.62V102.92ZM1321.89 96.92L1327.89 96.9112L1327.88 90.92H1321.89V96.92ZM1322.01 179V185H1328.01L1328.01 178.991L1322.01 179ZM1309.77 179H1303.77V185H1309.77V179ZM1309.77 149.36H1315.77V143.36H1309.77V149.36ZM1242.69 152.12L1246.08 157.064L1246.1 157.053L1246.12 157.042L1242.69 152.12ZM1238.85 179V185H1244.85V179H1238.85ZM1226.61 179H1220.61V185H1226.61V179ZM1230.09 148.88L1225.58 144.916L1225.58 144.919L1230.09 148.88ZM1237.17 144.08L1239.42 149.64L1252.76 144.234L1239.53 138.565L1237.17 144.08ZM1229.85 138.44L1224.8 141.685L1224.81 141.706L1224.83 141.728L1229.85 138.44ZM1232.25 104.12L1236.94 107.858L1236.95 107.839L1236.97 107.82L1232.25 104.12ZM1309.77 138.2V144.2H1315.77V138.2H1309.77ZM1309.77 107.96H1315.77V101.96H1309.77V107.96ZM1243.53 110.24L1239.99 105.396L1239.97 105.41L1239.95 105.425L1243.53 110.24ZM1243.41 135.8L1239.77 140.57L1239.8 140.596L1239.83 140.621L1243.41 135.8ZM1315.89 96.9288L1316.01 179.009L1328.01 178.991L1327.89 96.9112L1315.89 96.9288ZM1322.01 173H1309.77V185H1322.01V173ZM1315.77 179V149.36H1303.77V179H1315.77ZM1309.77 143.36H1252.05V155.36H1309.77V143.36ZM1252.05 143.36C1247.37 143.36 1243.02 144.574 1239.25 147.198L1246.12 157.042C1247.63 155.986 1249.52 155.36 1252.05 155.36V143.36ZM1239.29 147.176C1235.37 149.871 1232.85 153.839 1232.85 158.84H1244.85C1244.85 158.401 1244.88 157.889 1246.08 157.064L1239.29 147.176ZM1232.85 158.84V179H1244.85V158.84H1232.85ZM1238.85 173H1226.61V185H1238.85V173ZM1232.61 179V158.84H1220.61V179H1232.61ZM1232.61 158.84C1232.61 156.083 1233.37 154.234 1234.59 152.841L1225.58 144.919C1222.16 148.806 1220.61 153.597 1220.61 158.84H1232.61ZM1234.59 152.844C1235.62 151.669 1237.15 150.559 1239.42 149.64L1234.91 138.52C1231.26 140.001 1228.07 142.091 1225.58 144.916L1234.59 152.844ZM1239.53 138.565C1236.91 137.445 1235.56 136.215 1234.86 135.152L1224.83 141.728C1227.17 145.305 1230.7 147.835 1234.8 149.595L1239.53 138.565ZM1234.89 135.195C1233.66 133.276 1232.61 129.543 1232.61 123.08H1220.61C1220.61 130.377 1221.71 136.884 1224.8 141.685L1234.89 135.195ZM1232.61 123.08C1232.61 116.091 1234.26 111.224 1236.94 107.858L1227.55 100.382C1222.71 106.456 1220.61 114.229 1220.61 123.08H1232.61ZM1236.97 107.82C1239.42 104.69 1242.91 102.92 1248.33 102.92V90.92C1239.82 90.92 1232.59 93.9504 1227.52 100.42L1236.97 107.82ZM1248.33 102.92H1321.89V90.92H1248.33V102.92ZM1315.77 138.2V107.96H1303.77V138.2H1315.77ZM1309.77 101.96H1253.25V113.96H1309.77V101.96ZM1253.25 101.96C1248.38 101.96 1243.6 102.758 1239.99 105.396L1247.07 115.084C1247.62 114.682 1249.31 113.96 1253.25 113.96V101.96ZM1239.95 105.425C1234.57 109.425 1232.85 116.101 1232.85 123.08H1244.85C1244.85 117.579 1246.24 115.695 1247.11 115.055L1239.95 105.425ZM1232.85 123.08C1232.85 129.965 1234.52 136.565 1239.77 140.57L1247.05 131.03C1246.21 130.395 1244.85 128.515 1244.85 123.08H1232.85ZM1239.83 140.621C1243.5 143.337 1248.31 144.2 1253.25 144.2V132.2C1249.38 132.2 1247.63 131.463 1246.98 130.979L1239.83 140.621ZM1253.25 144.2H1309.77V132.2H1253.25V144.2ZM1341.07 165.08V159.08H1335.07V165.08H1341.07ZM1354.51 165.08H1360.51V159.08H1354.51V165.08ZM1354.51 179.6V185.6H1360.51V179.6H1354.51ZM1341.07 179.6H1335.07V185.6H1341.07V179.6ZM1341.07 171.08H1354.51V159.08H1341.07V171.08ZM1348.51 165.08V179.6H1360.51V165.08H1348.51ZM1354.51 173.6H1341.07V185.6H1354.51V173.6ZM1347.07 179.6V165.08H1335.07V179.6H1347.07Z" fill="#FF0000" mask="url(#path-2-outside-1_19_149)"/>
<defs>
<filter id="filter0_f_19_149" x="-7.86" y="0.720215" width="1458.37" height="276.48" filterUnits="userSpaceOnUse" color-interpolation-filters="sRGB">
<feFlood flood-opacity="0" result="BackgroundImageFix"/>
<feBlend mode="normal" in="SourceGraphic" in2="BackgroundImageFix" result="shape"/>
<feGaussianBlur stdDeviation="48" result="effect1_foregroundBlur_19_149"/>
</filter>
</defs>
</svg>
