<svg width="84" height="84" viewBox="0 0 84 84" fill="none" xmlns="http://www.w3.org/2000/svg">
<rect width="84" height="84" rx="42" fill="white"/>
<path d="M58 34H26V30H58V34ZM54 22H30V26H54V22ZM62 42V58C62 59.0609 61.5786 60.0783 60.8284 60.8284C60.0783 61.5786 59.0609 62 58 62H26C24.9401 61.9968 23.9245 61.5744 23.1751 60.8249C22.4256 60.0755 22.0032 59.0599 22 58V42C22.0032 40.9401 22.4256 39.9245 23.1751 39.1751C23.9245 38.4256 24.9401 38.0032 26 38H58C59.0599 38.0032 60.0755 38.4256 60.8249 39.1751C61.5744 39.9245 61.9968 40.9401 62 42ZM45.854 52.084L50.5 48.112L44.382 47.6L42 42L39.618 47.6L33.5 48.112L38.146 52.084L36.746 58L42 54.856L47.254 58L45.854 52.084Z" fill="black"/>
</svg>
