<svg width="84" height="84" viewBox="0 0 84 84" fill="none" xmlns="http://www.w3.org/2000/svg">
<rect width="84" height="84" rx="42" fill="white"/>
<path d="M46.5438 19.8499C44.7456 19.8825 42.7975 20.7051 41.2471 22.2556C39.145 24.3577 38.3826 27.1896 39.1112 29.389C32.9278 26.5468 33.512 26.3695 27.5493 22.5438C26.605 21.938 25.7263 21.6615 24.9415 21.6246C23.6334 21.5632 22.5859 22.1677 21.9288 23.0239C20.8775 24.3939 20.7692 26.4143 22.9554 28.1256C25.8642 30.4024 28.4703 31.9714 30.3631 33.6991C32.2559 35.4269 33.4248 37.5059 33.0213 40.2659V40.2661C32.7251 42.2918 31.7388 43.8284 30.5407 45.0914C29.3426 46.3542 27.9373 47.386 26.6538 48.5298C24.087 50.8173 21.9363 53.3832 22.4302 59.2422C22.7421 62.9437 25.6334 64.4085 28.0239 64.1514C29.2192 64.0228 30.2268 63.4617 30.7796 62.5117C31.3324 61.562 31.5005 60.1286 30.6824 58.0368H30.6822C29.9704 56.2165 30.9754 54.2088 32.4042 52.6846C33.8329 51.1602 35.8548 49.983 37.9216 50.341C38.5005 50.4413 38.9946 50.7837 39.3331 51.1995C39.6715 51.6153 39.8939 52.0999 40.0788 52.6277C40.449 53.6835 40.6657 54.9424 40.9336 56.2445C41.4689 58.8486 42.2151 61.492 44.0337 62.664C47.5928 64.9579 51.0888 64.2948 52.6495 62.7052C53.43 61.9107 53.7666 60.939 53.5052 59.7859C53.2438 58.633 52.3151 57.2398 50.2926 55.8629C48.0741 54.3526 47.231 51.3364 47.1196 48.3518C47.0082 45.3672 47.6155 42.3443 49.0068 40.4737C49.6516 39.6065 50.6506 39.243 51.786 38.8409C52.9213 38.4387 54.2432 38.0459 55.6066 37.4633C58.3334 36.2984 61.1989 34.4442 63.0259 30.2644C64.627 26.6018 63.3407 24.2371 61.5918 23.3763C60.7173 22.9458 59.7048 22.8929 58.7385 23.3153C57.7721 23.7377 56.822 24.6481 56.165 26.2947C54.9332 29.3821 52.4905 31.1397 49.5637 31.5831C48.8047 31.698 48.0143 31.7318 47.1991 31.6922C47.9027 31.3106 48.5781 30.8118 49.1912 30.1987C51.9475 27.4425 52.4041 23.4298 50.2103 21.2362C49.2507 20.2765 47.9428 19.8241 46.5442 19.8497L46.5438 19.8499ZM41.6758 32.2053C41.7546 32.2034 41.8335 32.2036 41.9125 32.2059C42.3334 32.2181 42.7542 32.2878 43.1681 32.422C44.8233 32.9592 45.9637 34.3971 46.4934 36.1313C47.0231 37.8657 46.9895 39.9374 46.3206 42.0033C45.6516 44.0694 44.4648 45.7672 43.0194 46.861C41.5738 47.9547 39.8068 48.4498 38.1514 47.9127C36.4961 47.3755 35.3558 45.9377 34.8261 44.2034C34.2964 42.4691 34.3302 40.3971 34.9991 38.3312C35.668 36.2651 36.8549 34.5673 38.3003 33.4736C39.3166 32.7045 40.492 32.2314 41.6757 32.2052L41.6758 32.2053ZM41.6955 33.9537C40.9384 33.9708 40.1392 34.2795 39.3576 34.8708C38.246 35.712 37.2333 37.1193 36.6661 38.8708C36.0991 40.622 36.0944 42.3572 36.502 43.6914C36.9094 45.0258 37.6817 45.918 38.6922 46.2461C39.7028 46.5739 40.8505 46.3049 41.9622 45.4638C43.0738 44.6226 44.0866 43.2151 44.6536 41.4636C45.2208 39.7124 45.2252 37.9773 44.8176 36.643C44.4102 35.3088 43.638 34.4164 42.6273 34.0885C42.3748 34.0066 42.1118 33.9613 41.8464 33.9541C41.7961 33.9526 41.7458 33.9524 41.6955 33.9535V33.9537ZM41.0158 36.5452C41.0544 36.5442 41.0932 36.5443 41.132 36.5455C41.3434 36.5515 41.5527 36.5896 41.7527 36.6584C42.5755 36.9417 43.0905 37.6726 43.3166 38.4584C43.5425 39.2443 43.5226 40.138 43.251 41.0285C42.9791 41.919 42.4996 42.6648 41.867 43.1726C41.2344 43.6807 40.3701 43.9568 39.5473 43.6735C38.7243 43.3901 38.2095 42.6591 37.9833 41.8733C37.7572 41.0875 37.7771 40.1936 38.049 39.3031C38.3206 38.4126 38.7999 37.6668 39.4327 37.159C39.8774 36.8018 40.4368 36.5592 41.0158 36.5451V36.5452ZM41.0589 38.2918C41.0094 38.2903 40.96 38.2964 40.9124 38.3098C40.8058 38.3386 40.6803 38.4041 40.5297 38.5251C40.2283 38.767 39.9046 39.2251 39.7248 39.8144C39.545 40.4036 39.5509 40.9853 39.6671 41.3889C39.7833 41.7923 39.9671 41.9649 40.1178 42.0168C40.2686 42.0688 40.4688 42.0484 40.7702 41.8065C41.0716 41.5645 41.3955 41.1064 41.5753 40.5172C41.7551 39.928 41.7491 39.3463 41.633 38.9429C41.5168 38.5392 41.333 38.3666 41.1821 38.3148C41.1446 38.3016 41.1036 38.2932 41.059 38.2916L41.0589 38.2918Z" fill="black"/>
</svg>
