<svg width="84" height="84" viewBox="0 0 84 84" fill="none" xmlns="http://www.w3.org/2000/svg">
<rect width="84" height="84" rx="42" fill="white"/>
<path d="M59.5725 50.64C54.9525 48.2118 48.9576 46.2353 42.0001 46.2353C35.0426 46.2353 29.0476 48.2118 24.4277 50.64C23.0858 51.3496 21.9617 52.4271 21.1802 53.7529C20.3986 55.0787 19.9902 56.6009 20.0002 58.1506V66H64V58.1506C64 54.9882 62.3225 52.08 59.5725 50.64ZM42.0001 43.4118C48.0776 43.4118 53 38.3576 53 32.1176V22.2353C53 19.8918 51.1576 18 48.8751 18C47.4451 18 46.1801 18.7624 45.4376 19.8918C44.6951 18.7624 43.4301 18 42.0001 18C40.5701 18 39.3051 18.7624 38.5626 19.8918C37.8201 18.7624 36.5551 18 35.1251 18C32.8426 18 31.0001 19.8918 31.0001 22.2353V32.1176C31.0001 38.3576 35.9226 43.4118 42.0001 43.4118Z" fill="black"/>
</svg>
