<svg width="84" height="84" viewBox="0 0 84 84" fill="none" xmlns="http://www.w3.org/2000/svg">
<rect width="84" height="84" rx="42" fill="white"/>
<path fill-rule="evenodd" clip-rule="evenodd" d="M34.4962 27.8027C34.2555 26.8618 33.7702 26.0015 33.0894 25.309C32.4087 24.6164 31.5567 24.1164 30.6202 23.8597C29.6836 23.6031 28.6958 23.5988 27.7571 23.8475C26.8184 24.0962 25.9622 24.5888 25.2755 25.2755C24.5888 25.9622 24.0962 26.8184 23.8475 27.7571C23.5988 28.6958 23.6031 29.6836 23.8597 30.6202C24.1164 31.5567 24.6164 32.4087 25.309 33.0894C26.0015 33.7702 26.8618 34.2555 27.8027 34.4962C27.7964 34.5528 27.7927 34.6097 27.7917 34.6667V49.3333C27.7917 49.392 27.7953 49.4488 27.8027 49.5038C26.8618 49.7444 26.0015 50.2298 25.309 50.9106C24.6164 51.5913 24.1164 52.4433 23.8597 53.3798C23.6031 54.3164 23.5988 55.3042 23.8475 56.2429C24.0962 57.1816 24.5888 58.0378 25.2755 58.7245C25.9622 59.4112 26.8184 59.9038 27.7571 60.1525C28.6958 60.4012 29.6836 60.3969 30.6202 60.1403C31.5567 59.8836 32.4087 59.3836 33.0894 58.691C33.7702 57.9985 34.2555 57.1381 34.4962 56.1973C34.5512 56.2047 34.608 56.2083 34.6667 56.2083H49.3333C49.3903 56.2073 49.4472 56.2036 49.5038 56.1973C49.7444 57.1381 50.2298 57.9985 50.9106 58.691C51.5913 59.3836 52.4433 59.8836 53.3798 60.1403C54.3164 60.3969 55.3042 60.4012 56.2429 60.1525C57.1816 59.9038 58.0378 59.4112 58.7245 58.7245C59.4112 58.0378 59.9038 57.1816 60.1525 56.2429C60.4012 55.3042 60.3969 54.3164 60.1403 53.3798C59.8836 52.4433 59.3836 51.5913 58.691 50.9106C57.9985 50.2298 57.1381 49.7444 56.1973 49.5038C56.2036 49.4472 56.2073 49.3903 56.2083 49.3333V34.6667C56.2073 34.6097 56.2036 34.5528 56.1973 34.4962C57.1381 34.2555 57.9985 33.7702 58.691 33.0894C59.3836 32.4087 59.8836 31.5567 60.1403 30.6202C60.3969 29.6836 60.4012 28.6958 60.1525 27.7571C59.9038 26.8184 59.4112 25.9622 58.7245 25.2755C58.0378 24.5888 57.1816 24.0962 56.2429 23.8475C55.3042 23.5988 54.3164 23.6031 53.3798 23.8597C52.4433 24.1164 51.5913 24.6164 50.9106 25.309C50.2298 26.0015 49.7444 26.8618 49.5038 27.8027C49.4472 27.7964 49.3903 27.7927 49.3333 27.7917H34.6667C34.6097 27.7927 34.5528 27.7964 34.4962 27.8027ZM30.5307 34.4962C30.538 34.5512 30.5417 34.608 30.5417 34.6667V49.3333C30.5407 49.3903 30.537 49.4472 30.5307 49.5038C31.4866 49.7483 32.3591 50.2455 33.0568 50.9432C33.7545 51.6409 34.2517 52.5134 34.4962 53.4693C34.5528 53.463 34.6097 53.4593 34.6667 53.4583H49.3333C49.3903 53.4593 49.4472 53.463 49.5038 53.4693C49.7483 52.5134 50.2455 51.6409 50.9432 50.9432C51.6409 50.2455 52.5134 49.7483 53.4693 49.5038C53.463 49.4472 53.4593 49.3903 53.4583 49.3333V34.6667C53.4583 34.608 53.462 34.5512 53.4693 34.4962C52.5134 34.2517 51.6409 33.7545 50.9432 33.0568C50.2455 32.3591 49.7483 31.4866 49.5038 30.5307C49.4472 30.537 49.3903 30.5407 49.3333 30.5417H34.6667C34.6097 30.5407 34.5528 30.537 34.4962 30.5307C34.2517 31.4866 33.7545 32.3591 33.0568 33.0568C32.3591 33.7545 31.4866 34.2517 30.5307 34.4962Z" fill="black"/>
</svg>
