<svg width="96" height="96" viewBox="0 0 96 96" fill="none" xmlns="http://www.w3.org/2000/svg">
<g clip-path="url(#clip0_1932_333)">
<circle cx="48" cy="48" r="47.5" stroke="#E6E6E6"/>
<g clip-path="url(#clip1_1932_333)">
<path d="M37.3333 29.3335H58.6667V34.6668H37.3333V29.3335ZM26.6667 40.0002V34.6668H37.3333V40.0002H26.6667ZM21.3333 45.3335V40.0002H26.6667V45.3335H21.3333ZM21.3333 50.6668V45.3335H16V50.6668H21.3333ZM26.6667 56.0002H21.3333V50.6668H26.6667V56.0002ZM37.3333 61.3335H26.6667V56.0002H37.3333V61.3335ZM58.6667 61.3335V66.6668H37.3333V61.3335H58.6667ZM69.3333 56.0002V61.3335H58.6667V56.0002H69.3333ZM74.6667 50.6668V56.0002H69.3333V50.6668H74.6667ZM74.6667 45.3335H80V50.6668H74.6667V45.3335ZM69.3333 40.0002H74.6667V45.3335H69.3333V40.0002ZM69.3333 40.0002V34.6668H58.6667V40.0002H69.3333ZM42.6667 42.6668H53.3333V53.3335H42.6667V42.6668Z" fill="#FF0000"/>
</g>
</g>
<defs>
<clipPath id="clip0_1932_333">
<rect width="96" height="96" fill="white"/>
</clipPath>
<clipPath id="clip1_1932_333">
<rect width="64" height="64" fill="white" transform="translate(16 16)"/>
</clipPath>
</defs>
</svg>
