<svg width="32" height="32" viewBox="0 0 32 32" fill="none" xmlns="http://www.w3.org/2000/svg">
<path d="M10.6667 6H21.3333V8.71429H10.6667V6ZM5.33333 11.4286V8.71429H10.6667V11.4286H5.33333ZM2.66667 14.1429V11.4286H5.33333V14.1429H2.66667ZM2.66667 16.8571V14.1429H0V16.8571H2.66667ZM5.33333 19.5714H2.66667V16.8571H5.33333V19.5714ZM10.6667 22.2857H5.33333V19.5714H10.6667V22.2857ZM21.3333 22.2857V25H10.6667V22.2857H21.3333ZM26.6667 19.5714V22.2857H21.3333V19.5714H26.6667ZM29.3333 16.8571V19.5714H26.6667V16.8571H29.3333ZM29.3333 14.1429H32V16.8571H29.3333V14.1429ZM26.6667 11.4286H29.3333V14.1429H26.6667V11.4286ZM26.6667 11.4286V8.71429H21.3333V11.4286H26.6667ZM13.3333 12.7857H18.6667V18.2143H13.3333V12.7857Z" fill="white"/>
</svg>
